# xmcd
#
# Track frame offsets:
#	150
#	13491
#	39248
#	65638
#	91081
#	122341
#	149791
#	175116
#	213774
#	229673
#
# Disc length: 3429 seconds
#
# Revision: 1
# Processed by: cddbd v1.5.2PL0 Copyright (c) Steve Scherf et al.
# Submitted via: EasyCDDAExtractor 9.0.0.1
#
DISCID=840d630a
DTITLE=Blue Oyster Cult - The Cabaret San Jose 03-03-88 Disc 1
DYEAR=1988
DGENRE=Hard Rock
TTITLE0=Radio Intro
TTITLE1=R U Ready 2 Rock
TTITLE2=Dominance and Submission
TTITLE3=ETI
TTITLE4=Buck's Boogie
TTITLE5=Flaming Telepaths
TTITLE6=Take Me Away
TTITLE7=Then Came The Last Days Of May 
TTITLE8=ME 262
TTITLE9=Joan Crawford
EXTD=
EXTT0=
EXTT1=
EXTT2=
EXTT3=
EXTT4=
EXTT5=
EXTT6=
EXTT7=
EXTT8=
EXTT9=
PLAYORDER=
